<?xml version="1.0" encoding="utf-8"?>
<!-- Generator: Adobe Illustrator 23.0.5, SVG Export Plug-In . SVG Version: 6.00 Build 0)  -->
<svg version="1.1" id="Layer_1" xmlns:xodm="http://www.corel.com/coreldraw/odm/2003"
	 xmlns="http://www.w3.org/2000/svg" xmlns:xlink="http://www.w3.org/1999/xlink" x="0px" y="0px" viewBox="0 0 340.2 82"
	 style="enable-background:new 0 0 340.2 82;" xml:space="preserve">
<style type="text/css">
	.st0{fill-rule:evenodd;clip-rule:evenodd;fill:#FFFFFF;}
	.st1{fill-rule:evenodd;clip-rule:evenodd;fill:#93AE25;}
	.st2{fill-rule:evenodd;clip-rule:evenodd;fill:#2B2B2A;}
</style>
<g id="Layer_x0020_1">
	<polygon class="st0" points="22.1,74.9 75.2,5.9 128.3,74.9 	"/>
	<path class="st1" d="M75.3,8.1l8.8,12.7c0,0-8.3,4.7-12.3,15C69,43,70.6,49.9,67.7,57.2c-6.3,16.2-35.3,13.3-35.3,13.3L75.3,8.1z"
		/>
	<path class="st2" d="M91.7,23.1c3,0.5,7.6,1.4,10.7,2c14.1,2.8,27.2,6.2,38.3,9.9c-8-2.3-16.8-4.4-26.1-6.3
		c-6.6-1.3-14.8-2.7-20.9-3.5L91.7,23.1L91.7,23.1z"/>
	<path class="st2" d="M49.4,47.1c5.5,2.2,13.3,4.5,18.6,6c-0.8,5.4-3.3,10.2-13.4,14.4c-7.7,3.2-21,2.5-21,2.5L49.4,47.1L49.4,47.1z
		 M75.3,9.2l8,11.3c0,0-12.5,6.7-14.6,22.6c-0.2,1.8-0.3,3.6-0.4,5.3C63.2,46.6,56.9,44,53,41.8L75.3,9.2z M41.4,75
		c11.6-0.6,18.2-3.8,23.7-9.9c2.4-2.6,4.2-7.4,4.9-11.7c0.8-5.1,0.7-11,5.2-17.7c5.5-8.1,11.3-10.2,15.1-10.4l-15-19.5L49.4,39.5
		c-6.6-3.7-11.7-7.2-11.2-9.9c0.7-3.7,7.8-5.6,19.3-6l3.6-4.1c-24.7-1.9-41.1,0.8-42.3,7.2c-1,5,6.6,11.9,25.8,19L22.2,75H41.4z"/>
	<path class="st2" d="M119.5,63.3c-24.5-2.7-45.5-9-45.5-9l0.7-3.7c11,3.4,27.1,7.1,42.3,9.5L95,31.3C92.3,31,84.2,31,78.3,38.1
		c-3.9,4.8-5.4,10.5-6.2,15.6c-0.7,4.7-2.2,12.3-5.2,16.4c-1.5,2-3,3.6-4.5,4.8h66L119.5,63.3L119.5,63.3z"/>
	<path class="st2" d="M144.2,21.7c-0.9,0-1.8,0.1-2.6,0.4s-1.6,0.6-2.3,1.1s-1.3,1.1-1.8,1.9s-0.8,1.6-1,2.7c-0.2,1.2-0.1,2.2,0.2,3
		s0.8,1.4,1.5,1.8c0.7,0.5,1.5,0.8,2.4,1s1.9,0.4,3,0.6c1.1,0.1,2.1,0.3,3.2,0.4c1.1,0.1,2.1,0.3,3,0.6c0.9,0.2,1.8,0.6,2.4,1
		c0.7,0.5,1.2,1.1,1.5,1.8c0.3,0.8,0.4,1.8,0.2,2.9c-0.3,1.6-0.8,3-1.6,4.1s-2,2-3.4,2.7c-1.5,0.6-3.2,0.9-5.3,0.9H135
		c-0.6,0-1.2,0.1-1.6,0.4c-0.4,0.3-0.7,0.8-0.8,1.4c-0.1,0.6,0,1.1,0.4,1.4c0.3,0.3,0.8,0.4,1.4,0.4h9.7c1.9,0,3.6-0.3,5.2-0.9
		c1.6-0.6,3-1.4,4.2-2.4s2.2-2.2,3-3.6c0.8-1.4,1.3-2.9,1.6-4.5s0.3-2.9,0-4s-0.7-2-1.4-2.8c-0.6-0.7-1.4-1.3-2.3-1.7
		c-0.9-0.4-1.9-0.8-2.9-1s-2.1-0.4-3.2-0.5c-1.1-0.1-2.1-0.2-3-0.3c-1-0.1-1.8-0.3-2.5-0.4c-0.7-0.2-1.3-0.5-1.7-0.8
		c-0.4-0.4-0.5-0.8-0.4-1.5c0.1-0.6,0.3-1,0.6-1.3s0.7-0.6,1.1-0.7c0.4-0.1,0.8-0.2,1.3-0.3c0.4,0,0.8-0.1,1.2-0.1h9.9
		c0.6,0,1.2-0.1,1.6-0.4c0.4-0.3,0.7-0.8,0.8-1.4s0-1.1-0.4-1.4c-0.3-0.3-0.8-0.4-1.4-0.4L144.2,21.7L144.2,21.7z M159.3,58.7
		c-0.1,0.4-0.1,0.8,0,1.2c0.1,0.3,0.2,0.6,0.5,0.8c0.2,0.2,0.6,0.3,1.1,0.3s0.9-0.1,1.2-0.3s0.6-0.5,0.7-0.8
		c0.2-0.3,0.3-0.7,0.4-1.2l1.1-6.4h5.3c1.1,0,2.2-0.1,3.3-0.3s2.2-0.6,3.2-1c1-0.5,1.9-1.1,2.8-1.9c0.9-0.8,1.6-1.8,2.2-3
		c0.6-1.2,1-2.6,1.3-4.2c0.2-1.3,0.2-2.5-0.1-3.7c-0.2-1.2-0.7-2.3-1.3-3.4c-0.7-1-1.5-2-2.5-2.8s-2.2-1.4-3.6-1.9
		c-1.4-0.4-2.9-0.7-4.6-0.7h-2.7c-0.7,0-1.4,0.1-1.9,0.2s-0.9,0.4-1.2,0.7c-0.3,0.4-0.5,0.9-0.6,1.7L159.3,58.7L159.3,58.7z
		 M167.4,33.1h2.2c1.4,0,2.7,0.2,3.9,0.7c1.1,0.4,2.1,1.1,2.9,1.9c0.8,0.8,1.3,1.8,1.6,2.9c0.3,1.1,0.4,2.4,0.1,3.7
		c-0.3,1.5-0.8,2.8-1.5,3.7s-1.7,1.6-2.9,2.1c-1.2,0.4-2.6,0.7-4.2,0.7h-4.8L167.4,33.1L167.4,33.1z M190.6,38.2
		c0.3-0.7,0.6-1.4,1.1-2c0.4-0.7,1-1.2,1.6-1.7s1.4-0.9,2.2-1.2s1.8-0.4,2.9-0.4c1.2,0,2.2,0.2,3,0.7s1.4,1.1,1.7,1.9
		c0.4,0.8,0.5,1.8,0.4,2.8L190.6,38.2L190.6,38.2z M204.7,41.2c0.5,0,0.9,0,1.2-0.1s0.5-0.2,0.7-0.4s0.3-0.4,0.4-0.7
		c0.1-0.3,0.2-0.7,0.2-1.2c0.2-1.4,0.2-2.7-0.1-3.8c-0.3-1.2-0.8-2.2-1.6-3s-1.7-1.5-2.8-1.9c-1.1-0.5-2.4-0.7-3.7-0.7
		c-1.6,0-3.2,0.3-4.7,0.8c-1.4,0.5-2.8,1.3-3.9,2.3c-1.2,1-2.1,2.2-2.9,3.5c-0.8,1.4-1.3,2.9-1.6,4.6c-0.3,2-0.3,3.7,0,5.1
		c0.3,1.5,0.9,2.7,1.7,3.6c0.8,1,1.8,1.7,3,2.2s2.5,0.7,4,0.7h8.5c0.6,0,1.1-0.1,1.5-0.4c0.4-0.3,0.7-0.7,0.8-1.3s0-1-0.3-1.3
		s-0.8-0.4-1.4-0.4h-8.4c-0.9,0-1.8-0.2-2.5-0.5c-0.8-0.3-1.4-0.8-2-1.4c-0.5-0.6-0.9-1.4-1.1-2.4c-0.2-1-0.1-2.1,0.2-3.4
		L204.7,41.2L204.7,41.2z M222.8,48.6c-1.4,0-2.6-0.2-3.7-0.6c-1.1-0.4-2-1-2.8-1.8c-0.7-0.8-1.3-1.8-1.6-2.9
		c-0.3-1.2-0.3-2.5-0.1-4c0.2-1.4,0.7-2.5,1.4-3.5c0.7-0.9,1.6-1.6,2.8-2.1s2.7-0.7,4.5-0.7h5c0.6,0,1.1-0.1,1.5-0.4
		c0.4-0.3,0.7-0.7,0.8-1.3c0.1-0.6,0-1-0.3-1.3s-0.8-0.4-1.4-0.4h-7.5c-1.4,0-2.8,0.2-4,0.7s-2.3,1.1-3.3,2s-1.7,1.9-2.4,3
		c-0.6,1.1-1.1,2.4-1.3,3.8c-0.3,1.6-0.3,3.1,0,4.5s0.7,2.6,1.4,3.6c0.7,1.1,1.5,2,2.4,2.7c1,0.7,2,1.3,3.1,1.7s2.3,0.6,3.5,0.6h5.2
		c0.6,0,1.2-0.1,1.6-0.4c0.4-0.3,0.7-0.8,0.8-1.4c0.1-0.6,0-1.1-0.4-1.4c-0.3-0.3-0.8-0.4-1.4-0.4L222.8,48.6L222.8,48.6z
		 M241.2,29.4l0.6-3.7c0.1-0.5,0.1-0.8,0-1.2c-0.1-0.3-0.2-0.6-0.5-0.8c-0.2-0.2-0.6-0.3-1.1-0.3s-0.9,0.1-1.2,0.3
		c-0.3,0.2-0.6,0.5-0.7,0.8c-0.2,0.3-0.3,0.7-0.4,1.2l-0.6,3.7h-1.1c-0.6,0-1.2,0.1-1.6,0.4c-0.4,0.3-0.7,0.8-0.8,1.4s0,1.1,0.4,1.4
		s0.8,0.4,1.4,0.4h1.1l-2.4,14.4c-0.2,1.2-0.2,2.1,0.1,2.8s0.7,1.2,1.4,1.5s1.5,0.5,2.4,0.6c1,0.1,2,0.1,3.2,0.1
		c0.7,0,1.3-0.2,1.8-0.5s0.7-0.8,0.8-1.3c0.1-0.6,0-1-0.4-1.3s-0.9-0.5-1.6-0.5c-1,0-1.8,0-2.3-0.1c-0.6-0.1-1-0.3-1.2-0.6
		s-0.3-0.9-0.1-1.6l2.2-13.5h3.4c0.6,0,1.2-0.1,1.6-0.4c0.4-0.3,0.7-0.8,0.8-1.4s0-1.1-0.4-1.4c-0.3-0.3-0.8-0.4-1.4-0.4L241.2,29.4
		L241.2,29.4z M246.8,50.1c-0.1,0.4-0.1,0.8,0,1.2c0.1,0.3,0.2,0.6,0.5,0.8s0.6,0.3,1.1,0.3s0.9-0.1,1.2-0.3s0.6-0.5,0.7-0.8
		c0.2-0.3,0.3-0.7,0.4-1.2l2-11.8c0.2-0.9,0.4-1.6,0.9-2.3c0.4-0.7,0.9-1.2,1.6-1.6c0.6-0.4,1.3-0.8,2.1-1c0.7-0.2,1.5-0.3,2.3-0.3
		c0.7,0,1.2-0.2,1.6-0.5s0.6-0.8,0.7-1.4s0-1.1-0.4-1.3c-0.4-0.3-0.9-0.4-1.6-0.4c-0.9,0-1.8,0.1-2.6,0.4c-0.8,0.3-1.5,0.7-2.1,1.2
		c-0.6,0.6-1.1,1.3-1.6,2.2h-0.1l0.2-1.3c0.1-0.5,0.1-0.8,0-1.2c-0.1-0.3-0.2-0.6-0.5-0.8c-0.3-0.2-0.6-0.3-1.1-0.3
		s-0.9,0.1-1.2,0.3c-0.3,0.2-0.6,0.5-0.7,0.8c-0.2,0.3-0.3,0.7-0.4,1.2L246.8,50.1L246.8,50.1z M283.1,31.9c0.1-0.5,0.1-0.8,0-1.2
		c-0.1-0.3-0.2-0.6-0.5-0.8c-0.2-0.2-0.6-0.3-1.1-0.3s-0.9,0.1-1.2,0.3c-0.3,0.2-0.6,0.5-0.7,0.8c-0.2,0.3-0.3,0.7-0.4,1.2
		l-1.8,10.7c-0.2,1.2-0.6,2.3-1.3,3.2c-0.7,0.9-1.5,1.7-2.5,2.3c-1,0.5-2,0.8-3.2,0.8s-2.2-0.3-2.8-0.7c-0.7-0.5-1.1-1.2-1.2-2.1
		c-0.2-0.9-0.1-2.1,0.1-3.4l1.8-10.8c0.1-0.5,0.1-0.8,0-1.2c-0.1-0.3-0.2-0.6-0.5-0.8c-0.3-0.2-0.6-0.3-1.1-0.3s-0.9,0.1-1.2,0.3
		c-0.3,0.2-0.6,0.5-0.7,0.8c-0.2,0.3-0.3,0.7-0.4,1.2l-2,12.4c-0.2,1.2-0.2,2.3,0,3.3s0.6,1.9,1.2,2.6c0.6,0.7,1.4,1.3,2.3,1.7
		s2.1,0.6,3.4,0.6c0.9,0,1.9-0.1,2.8-0.4c0.9-0.2,1.8-0.6,2.6-1.2c0.8-0.5,1.5-1.3,2.2-2.2l0.1,0.1l-0.3,1.6c-0.1,0.5,0,1,0.3,1.3
		c0.2,0.3,0.6,0.5,1.2,0.5c0.5,0,1-0.2,1.3-0.5c0.4-0.3,0.6-0.7,0.7-1.3L283.1,31.9L283.1,31.9z M285.8,50.1c-0.1,0.4-0.1,0.8,0,1.2
		c0.1,0.3,0.2,0.6,0.5,0.8s0.6,0.3,1.1,0.3s0.9-0.1,1.2-0.3c0.3-0.2,0.6-0.5,0.7-0.8c0.2-0.3,0.3-0.7,0.4-1.2l1.8-10.7
		c0.2-1.2,0.6-2.3,1.3-3.2c0.7-0.9,1.5-1.7,2.5-2.3c1-0.5,2-0.8,3.2-0.8s2.2,0.3,2.8,0.7c0.7,0.5,1.1,1.2,1.2,2.1
		c0.2,0.9,0.1,2.1-0.1,3.4l-1.8,10.8c-0.1,0.4-0.1,0.8,0,1.2c0.1,0.3,0.2,0.6,0.5,0.8s0.6,0.3,1.1,0.3s0.9-0.1,1.2-0.3
		c0.3-0.2,0.6-0.5,0.7-0.8c0.2-0.3,0.3-0.7,0.4-1.2l1.8-10.7c0.2-1.2,0.6-2.3,1.3-3.2c0.7-0.9,1.5-1.7,2.5-2.3c1-0.5,2-0.8,3.2-0.8
		s2.2,0.3,2.8,0.7c0.7,0.5,1.1,1.2,1.2,2.1c0.2,0.9,0.1,2.1-0.1,3.4l-1.8,10.8c-0.1,0.4-0.1,0.8,0,1.2c0.1,0.3,0.2,0.6,0.5,0.8
		c0.2,0.2,0.6,0.3,1.1,0.3s0.9-0.1,1.2-0.3c0.3-0.2,0.6-0.5,0.7-0.8c0.2-0.3,0.3-0.7,0.4-1.2l2-12c0.3-1.8,0.2-3.4-0.2-4.7
		c-0.4-1.3-1.2-2.3-2.4-3c-1.2-0.7-2.7-1-4.5-1c-0.8,0-1.6,0.1-2.3,0.3c-0.7,0.2-1.4,0.5-2.1,0.8c-0.6,0.3-1.2,0.7-1.7,1
		c-0.5,0.4-0.9,0.7-1.3,1c-0.3,0.3-0.6,0.6-0.7,0.8c-0.1-0.2-0.2-0.5-0.4-0.8c-0.2-0.3-0.4-0.7-0.7-1c-0.3-0.4-0.7-0.7-1.2-1
		s-1.1-0.6-1.7-0.8c-0.7-0.2-1.5-0.3-2.4-0.3s-1.9,0.1-2.8,0.4c-0.9,0.2-1.8,0.6-2.6,1.2c-0.8,0.5-1.5,1.3-2.2,2.2L292,33l0.3-1.6
		c0.1-0.5,0-1-0.2-1.3c-0.3-0.3-0.6-0.5-1.2-0.5c-0.5,0-1,0.2-1.3,0.5c-0.4,0.3-0.6,0.7-0.7,1.3L285.8,50.1L285.8,50.1z"/>
	<path class="st2" d="M185.9,65.1c0.3,0,0.5,0,0.7,0s0.3-0.1,0.4-0.1c0.1-0.1,0.2-0.2,0.2-0.3c0-0.2,0-0.3-0.1-0.3
		c-0.1-0.1-0.2-0.1-0.3-0.1s-0.3,0-0.5,0H185c-0.2,0-0.4,0-0.5,0c-0.2,0-0.3,0-0.5,0c-0.1,0-0.3,0-0.4,0c-0.2,0-0.3,0-0.5,0
		c-0.6,0-1.1,0.1-1.6,0.3c-0.5,0.2-0.9,0.5-1.3,0.9c-0.4,0.4-0.6,0.8-0.8,1.3s-0.3,1.1-0.3,1.7s0.1,1.1,0.3,1.6s0.4,0.9,0.8,1.3
		c0.3,0.4,0.7,0.6,1.2,0.8c0.5,0.2,1,0.3,1.6,0.3c0.2,0,0.5,0,0.7-0.1c0.2,0,0.5-0.1,0.7-0.2c0.2,0.1,0.4,0.2,0.6,0.3
		c0.2,0.1,0.3,0.2,0.5,0.3c0.1,0.1,0.3,0.3,0.4,0.5c0.1,0.2,0.1,0.4,0.1,0.6c0,0.3-0.1,0.5-0.2,0.7c-0.1,0.2-0.3,0.3-0.5,0.5
		c-0.2,0.1-0.4,0.2-0.7,0.3c-0.3,0.1-0.5,0.1-0.8,0.1s-0.5,0-0.7,0c-0.3,0-0.6,0-0.9-0.1c-0.3,0-0.6-0.1-0.8-0.2s-0.4-0.2-0.5-0.3
		c-0.1-0.1-0.2-0.3-0.2-0.4s0-0.2,0-0.2c0-0.1,0-0.1,0-0.2s0-0.1-0.1-0.2c0-0.1-0.1-0.1-0.2-0.1c-0.1,0-0.2,0-0.4,0.1
		c-0.1,0.1-0.2,0.2-0.3,0.3c-0.1,0.1-0.2,0.3-0.2,0.4c-0.1,0.1-0.1,0.3-0.1,0.4c0,0.2,0.1,0.5,0.2,0.6c0.1,0.2,0.3,0.3,0.6,0.4
		c0.2,0.1,0.5,0.2,0.8,0.2c0.3,0.1,0.6,0.1,0.9,0.1c0.3,0,0.6,0,0.9,0c0.3,0,0.6,0,0.9,0c0.3,0,0.7-0.1,1-0.1c0.3-0.1,0.7-0.2,1-0.3
		c0.3-0.1,0.6-0.3,0.8-0.5s0.4-0.4,0.6-0.7c0.1-0.3,0.2-0.6,0.2-1c0-0.3-0.1-0.5-0.2-0.8c-0.1-0.2-0.3-0.4-0.4-0.6
		c-0.2-0.2-0.4-0.4-0.6-0.5c-0.2-0.1-0.5-0.3-0.7-0.3c0.3-0.3,0.6-0.6,0.8-0.9s0.4-0.7,0.5-1.1s0.2-0.8,0.2-1.2
		c0-0.6-0.1-1.2-0.3-1.7s-0.5-1-0.9-1.4L185.9,65.1L185.9,65.1z M182.6,71.2c-0.4,0-0.8-0.1-1.1-0.3c-0.3-0.2-0.5-0.4-0.7-0.7
		c-0.2-0.3-0.3-0.6-0.4-1c-0.1-0.4-0.1-0.7-0.1-1.1c0-0.3,0-0.6,0.1-0.9s0.2-0.6,0.3-0.9s0.3-0.5,0.5-0.8c0.2-0.2,0.4-0.4,0.7-0.5
		s0.6-0.2,0.9-0.2c0.4,0,0.8,0.1,1.1,0.3c0.3,0.2,0.6,0.4,0.8,0.7c0.2,0.3,0.3,0.6,0.4,1c0.1,0.4,0.1,0.8,0.1,1.1
		c0,0.4,0,0.8-0.1,1.2c-0.1,0.4-0.2,0.7-0.5,1c-0.2,0.3-0.5,0.5-0.8,0.7C183.5,71.1,183.1,71.2,182.6,71.2L182.6,71.2z M195.2,67.5
		c0-0.8-0.2-1.4-0.5-1.9s-0.8-0.9-1.3-1.2c-0.6-0.3-1.3-0.4-2.1-0.4c-0.3,0-0.7,0-1,0.1c-0.4,0.1-0.7,0.2-1,0.4
		c-0.1,0-0.2,0.1-0.3,0.2s-0.2,0.2-0.3,0.3c-0.1,0.1-0.1,0.2-0.1,0.3c0,0.2,0.1,0.3,0.1,0.3c0.1,0.1,0.2,0.1,0.3,0.1s0.2,0,0.3-0.1
		s0.2-0.1,0.3-0.2s0.2-0.2,0.4-0.2c0.1-0.1,0.3-0.1,0.5-0.2s0.5-0.1,0.8-0.1s0.6,0.1,0.9,0.1c0.3,0.1,0.5,0.2,0.8,0.4
		c0.2,0.2,0.4,0.4,0.6,0.7c0.1,0.3,0.2,0.6,0.3,0.9c-0.2,0-0.3-0.1-0.5-0.1s-0.4,0-0.6,0c-0.7,0-1.3,0.1-1.8,0.2s-1,0.3-1.3,0.6
		c-0.4,0.2-0.7,0.5-0.9,0.8s-0.4,0.6-0.5,0.9s-0.1,0.6-0.1,0.9c0,0.4,0.1,0.8,0.3,1.1c0.2,0.3,0.4,0.6,0.7,0.8
		c0.3,0.2,0.6,0.4,1,0.5s0.7,0.2,1.1,0.2c0.6,0,1.2-0.1,1.7-0.4s0.9-0.7,1.2-1.2v0.4c0,0.2,0,0.4,0,0.5s0.1,0.2,0.2,0.3
		c0.1,0.1,0.2,0.1,0.5,0.1h0.8c0.1,0,0.2,0,0.3,0s0.2,0,0.3-0.1s0.1-0.1,0.1-0.3c0-0.1,0-0.2-0.1-0.3c-0.1-0.1-0.2-0.1-0.3-0.1
		s-0.3-0.1-0.3-0.2c-0.1-0.1-0.1-0.2-0.2-0.4c0-0.2-0.1-0.5-0.1-0.8L195.2,67.5L195.2,67.5z M193.9,69.3c0,0.5-0.1,0.9-0.3,1.3
		s-0.5,0.7-0.9,0.9c-0.4,0.2-0.9,0.3-1.5,0.3c-0.4,0-0.7-0.1-0.9-0.2c-0.3-0.1-0.5-0.3-0.6-0.6c-0.1-0.2-0.2-0.5-0.2-0.8
		c0-0.4,0.1-0.7,0.2-1c0.1-0.3,0.4-0.5,0.6-0.7c0.3-0.2,0.5-0.3,0.8-0.5c0.3-0.1,0.6-0.2,0.9-0.3c0.3-0.1,0.6-0.1,0.9-0.1
		c0.2,0,0.3,0,0.5,0c0.1,0,0.3,0,0.4,0.1L193.9,69.3L193.9,69.3z M198,71.7c0,0.2,0,0.3,0,0.5c0,0.1,0.1,0.2,0.2,0.3
		c0.1,0.1,0.2,0.1,0.4,0.1h2.3c0.1,0,0.2,0,0.3,0s0.2-0.1,0.2-0.1c0.1-0.1,0.1-0.1,0.1-0.2s0-0.2-0.1-0.3c-0.1-0.1-0.2-0.1-0.4-0.1
		s-0.4,0-0.7,0s-0.5,0-0.6-0.1s-0.3-0.1-0.3-0.3c-0.1-0.1-0.1-0.3-0.1-0.4c0-0.2,0-0.4,0-0.6V65h1.4c0.1,0,0.3,0,0.4,0
		c0.1,0,0.2-0.1,0.3-0.1c0.1-0.1,0.1-0.2,0.1-0.3c0-0.1,0-0.2-0.1-0.3c-0.1-0.1-0.2-0.1-0.3-0.1s-0.3,0-0.4,0h-1.4v-2.6
		c0-0.1,0-0.2,0-0.3s0-0.2-0.1-0.3s-0.1-0.1-0.3-0.1c-0.1,0-0.2,0-0.3,0.1s-0.1,0.2-0.1,0.3s-0.1,0.2-0.1,0.3s0,0.2,0,0.3
		s0,0.3-0.1,0.4s-0.1,0.3-0.1,0.5s-0.1,0.3-0.1,0.5s-0.1,0.3-0.1,0.4c-0.1,0.1-0.1,0.2-0.2,0.3c-0.1,0.1-0.2,0.1-0.3,0.1
		s-0.2,0-0.3,0s-0.2,0-0.3,0s-0.2,0.1-0.2,0.1c-0.1,0-0.1,0.1-0.1,0.2c0,0.2,0.1,0.3,0.2,0.4c0.1,0.1,0.3,0.1,0.5,0.1s0.5,0,0.8,0
		L198,71.7L198,71.7z M203.8,69.5c0.5-0.1,1-0.1,1.5-0.2s0.9-0.1,1.3-0.2c0.4-0.1,0.8-0.2,1.2-0.4c0.3-0.1,0.5-0.2,0.8-0.4
		c0.3-0.1,0.5-0.3,0.7-0.5s0.4-0.4,0.5-0.7c0.1-0.3,0.2-0.5,0.2-0.9c0-0.3-0.1-0.6-0.2-0.8c-0.1-0.3-0.3-0.5-0.6-0.7
		s-0.6-0.4-0.9-0.5c-0.4-0.1-0.8-0.2-1.2-0.2c-0.7,0-1.3,0.1-1.8,0.4c-0.6,0.2-1.1,0.6-1.5,1s-0.8,0.9-1,1.5s-0.4,1.2-0.4,1.8
		c0,0.6,0.1,1.1,0.3,1.6s0.5,0.9,0.9,1.3s0.8,0.6,1.3,0.8c0.5,0.2,1,0.3,1.6,0.3c0.5,0,0.9-0.1,1.3-0.2c0.4-0.1,0.8-0.3,1.2-0.6
		c0.1-0.1,0.2-0.1,0.3-0.2s0.2-0.2,0.4-0.3c0.1-0.1,0.2-0.3,0.3-0.4s0.1-0.3,0.1-0.4s0-0.2-0.1-0.2c-0.1-0.1-0.1-0.1-0.2-0.1
		c-0.1,0-0.2,0.1-0.3,0.2s-0.2,0.2-0.4,0.4c-0.2,0.1-0.3,0.3-0.6,0.4c-0.2,0.1-0.5,0.3-0.8,0.4s-0.6,0.2-1,0.2s-0.7-0.1-1-0.2
		s-0.6-0.3-0.9-0.5c-0.3-0.2-0.5-0.5-0.7-0.7C204,70.2,203.8,69.8,203.8,69.5L203.8,69.5z M203.7,68.7c0-0.5,0.1-1,0.2-1.4
		c0.1-0.5,0.3-0.9,0.6-1.2c0.3-0.4,0.6-0.6,1-0.8c0.4-0.2,0.9-0.3,1.4-0.3c0.3,0,0.5,0,0.8,0.1c0.2,0.1,0.4,0.2,0.6,0.4
		c0.1,0.2,0.2,0.5,0.2,0.8s-0.1,0.6-0.2,0.9c-0.2,0.2-0.4,0.5-0.7,0.6c-0.3,0.2-0.6,0.3-0.9,0.4c-0.3,0.1-0.7,0.2-1,0.3
		c-0.4,0.1-0.7,0.1-1,0.2C204.2,68.7,203.9,68.7,203.7,68.7L203.7,68.7z M216.5,64.1c-0.1,0-0.1,0-0.2,0c-0.1,0-0.2,0-0.2,0.1
		c-0.1,0-0.1,0.1-0.1,0.2s0,0.2,0.1,0.3c0.1,0.1,0.1,0.1,0.2,0.2c0.1,0.1,0.2,0.1,0.2,0.2c0.1,0.1,0.1,0.2,0.1,0.4
		c0,0.5-0.1,0.9-0.2,1.4c-0.1,0.5-0.3,1-0.5,1.6c-0.2,0.5-0.4,1-0.7,1.5c-0.2,0.5-0.5,0.9-0.8,1.2c-0.2-0.3-0.4-0.7-0.6-1.1
		c-0.2-0.4-0.4-0.9-0.5-1.3c-0.2-0.4-0.3-0.9-0.4-1.3c-0.1-0.4-0.2-0.8-0.3-1.2c-0.1-0.3-0.1-0.6-0.1-0.9c0-0.2,0-0.3,0.1-0.4
		s0.1-0.1,0.2-0.2c0.1,0,0.2-0.1,0.2-0.1c0.1-0.1,0.1-0.1,0.1-0.2s0-0.2,0-0.3c0-0.1-0.1-0.1-0.1-0.1c-0.1,0-0.2,0-0.3,0H211
		c-0.1,0-0.2,0-0.2,0c-0.1,0-0.1,0-0.2,0.1c0,0.1-0.1,0.1-0.1,0.2s0,0.2,0.1,0.2c0,0.1,0.1,0.1,0.2,0.2c0.1,0.1,0.1,0.1,0.2,0.2
		c0.1,0.1,0.1,0.3,0.1,0.5c0.1,0.4,0.2,0.9,0.3,1.4s0.3,1,0.4,1.6c0.2,0.5,0.4,1.1,0.6,1.6c0.2,0.6,0.5,1.1,0.8,1.6
		c0.1,0.2,0.2,0.3,0.3,0.5c0.1,0.1,0.2,0.3,0.3,0.4s0.2,0.1,0.3,0.1c0.2,0,0.3-0.1,0.4-0.2c0.1-0.1,0.3-0.3,0.4-0.5
		c0.2-0.3,0.4-0.7,0.6-1.1c0.2-0.4,0.4-0.9,0.7-1.4c0.2-0.5,0.4-1,0.7-1.6c0.2,0.7,0.5,1.3,0.7,1.8s0.4,1,0.6,1.4
		c0.2,0.4,0.4,0.7,0.5,1c0.1,0.2,0.2,0.3,0.4,0.4c0.1,0.1,0.2,0.1,0.3,0.1s0.2,0,0.3-0.1s0.2-0.2,0.3-0.3c0.1-0.1,0.2-0.3,0.4-0.6
		c0.2-0.4,0.5-0.8,0.7-1.3s0.4-1,0.6-1.5c0.2-0.5,0.4-1.1,0.5-1.6c0.2-0.5,0.3-1,0.4-1.5c0.1-0.3,0.1-0.5,0.2-0.6
		c0.1-0.2,0.1-0.3,0.2-0.4c0.1-0.1,0.1-0.2,0.1-0.2c0-0.1,0.1-0.2,0.1-0.2c0-0.1,0-0.2-0.1-0.2S223,64,222.9,64s-0.2,0-0.2,0h-1.3
		c-0.1,0-0.2,0-0.2,0c-0.1,0-0.1,0-0.2,0.1c0,0.1-0.1,0.1-0.1,0.2s0,0.2,0.1,0.3c0.1,0.1,0.1,0.1,0.2,0.2c0.1,0.1,0.2,0.1,0.2,0.3
		c0.1,0.1,0.1,0.3,0.1,0.5c0,0.3,0,0.6-0.1,1s-0.2,0.8-0.3,1.2c-0.1,0.4-0.3,0.9-0.4,1.3c-0.2,0.4-0.3,0.8-0.5,1.2
		c-0.2,0.4-0.4,0.7-0.5,0.9c-0.2-0.3-0.4-0.6-0.5-1c-0.2-0.4-0.4-0.8-0.5-1.2c-0.2-0.4-0.3-0.8-0.5-1.3c-0.1-0.4-0.3-0.8-0.3-1.2
		c-0.1-0.4-0.1-0.8-0.1-1.1c0-0.2,0-0.3,0.1-0.4s0.1-0.2,0.2-0.2c0.1,0,0.2-0.1,0.2-0.2c0.1-0.1,0.1-0.1,0.1-0.3
		c0-0.1,0-0.2-0.1-0.3c-0.1,0-0.1-0.1-0.3-0.1L216.5,64.1L216.5,64.1z M230.9,67.5c0-0.8-0.2-1.4-0.5-1.9s-0.8-0.9-1.3-1.2
		c-0.6-0.3-1.3-0.4-2.1-0.4c-0.3,0-0.7,0-1,0.1c-0.4,0.1-0.7,0.2-1,0.4c-0.1,0-0.2,0.1-0.3,0.2s-0.2,0.2-0.3,0.3
		c-0.1,0.1-0.1,0.2-0.1,0.3c0,0.2,0.1,0.3,0.1,0.3c0.1,0.1,0.2,0.1,0.3,0.1s0.2,0,0.3-0.1s0.2-0.1,0.3-0.2s0.2-0.2,0.4-0.2
		c0.1-0.1,0.3-0.1,0.5-0.2s0.5-0.1,0.8-0.1s0.6,0.1,0.9,0.1c0.3,0.1,0.5,0.2,0.8,0.4c0.2,0.2,0.4,0.4,0.6,0.7
		c0.1,0.3,0.2,0.6,0.3,0.9c-0.2,0-0.3-0.1-0.5-0.1s-0.4,0-0.6,0c-0.7,0-1.3,0.1-1.8,0.2s-1,0.3-1.3,0.6c-0.4,0.2-0.7,0.5-0.9,0.8
		s-0.4,0.6-0.5,0.9s-0.1,0.6-0.1,0.9c0,0.4,0.1,0.8,0.3,1.1c0.2,0.3,0.4,0.6,0.7,0.8c0.3,0.2,0.6,0.4,1,0.5s0.7,0.2,1.1,0.2
		c0.6,0,1.2-0.1,1.7-0.4s0.9-0.7,1.2-1.2v0.4c0,0.2,0,0.4,0,0.5s0.1,0.2,0.2,0.3c0.1,0.1,0.2,0.1,0.5,0.1h0.8c0.1,0,0.2,0,0.3,0
		s0.2,0,0.3-0.1s0.1-0.1,0.1-0.3c0-0.1,0-0.2-0.1-0.3c-0.1-0.1-0.2-0.1-0.3-0.1s-0.3-0.1-0.3-0.2c-0.1-0.1-0.1-0.2-0.2-0.4
		c0-0.2-0.1-0.5-0.1-0.8v-2.9L230.9,67.5L230.9,67.5z M229.6,69.3c0,0.5-0.1,0.9-0.3,1.3s-0.5,0.7-0.9,0.9c-0.4,0.2-0.9,0.3-1.5,0.3
		c-0.4,0-0.7-0.1-0.9-0.2c-0.3-0.1-0.5-0.3-0.6-0.6c-0.1-0.2-0.2-0.5-0.2-0.8c0-0.4,0.1-0.7,0.2-1c0.2-0.3,0.4-0.5,0.6-0.7
		c0.3-0.2,0.5-0.3,0.8-0.5c0.3-0.1,0.6-0.2,0.9-0.3c0.3-0.1,0.6-0.1,0.9-0.1c0.2,0,0.3,0,0.5,0c0.1,0,0.3,0,0.4,0.1L229.6,69.3
		L229.6,69.3z M232.6,64.1c-0.1,0-0.3,0-0.3,0.1c-0.1,0-0.1,0.1-0.1,0.3c0,0.1,0,0.2,0.1,0.2c0.1,0.1,0.1,0.1,0.2,0.1
		c0.1,0,0.1,0.1,0.2,0.2c0.1,0.1,0.1,0.2,0.1,0.4c0,0.2,0,0.4,0.1,0.6c0,0.3,0.1,0.6,0.1,0.9c0.1,0.3,0.1,0.7,0.2,1.1
		c0.1,0.4,0.2,0.8,0.3,1.1c0.1,0.4,0.3,0.8,0.5,1.1c0.2,0.4,0.4,0.7,0.6,1c0.2,0.3,0.5,0.5,0.7,0.7c0.3,0.2,0.6,0.2,0.9,0.2
		c0.1,0,0.3,0,0.4-0.1c0.1,0,0.3-0.1,0.4-0.1c-0.1,0.2-0.2,0.4-0.3,0.7c-0.1,0.3-0.3,0.5-0.5,0.8s-0.4,0.5-0.7,0.7
		c-0.2,0.2-0.5,0.4-0.7,0.5s-0.5,0.2-0.7,0.2c-0.1,0-0.2,0-0.3,0s-0.2,0-0.3-0.1c-0.1,0-0.2,0-0.3,0s-0.2,0-0.3,0.1
		s-0.2,0.1-0.2,0.2c-0.1,0.1-0.1,0.2-0.1,0.3c0,0.2,0.1,0.3,0.1,0.4c0.1,0.1,0.2,0.2,0.4,0.2c0.1,0,0.3,0.1,0.5,0.1
		c0.4,0,0.9-0.1,1.4-0.4s1-0.7,1.5-1.2s1-1.2,1.5-2.1c0.5-0.8,0.9-1.8,1.3-3c0.4-1.2,0.7-2.5,0.9-4c0-0.2,0.1-0.4,0.1-0.5
		s0.1-0.2,0.1-0.3c0-0.1,0.1-0.1,0.1-0.2s0-0.1,0-0.2s0-0.2-0.1-0.2s-0.2,0-0.3,0h-1.6c-0.1,0-0.2,0-0.3,0s-0.1,0.1-0.1,0.2
		c0,0.1,0,0.2,0.1,0.3c0.1,0.1,0.1,0.1,0.2,0.1c0.1,0,0.2,0.1,0.3,0.1s0.2,0.1,0.2,0.2c0.1,0.1,0.1,0.3,0.1,0.5c0,0.4,0,0.7-0.1,1.1
		c0,0.4-0.1,0.7-0.2,1c-0.1,0.3-0.1,0.6-0.2,0.9c-0.1,0.3-0.1,0.5-0.2,0.6c-0.1,0.4-0.3,0.8-0.4,1.1c-0.1,0.3-0.3,0.5-0.5,0.7
		s-0.4,0.2-0.7,0.2c-0.2,0-0.5-0.1-0.7-0.2s-0.4-0.4-0.7-0.7c-0.2-0.3-0.4-0.7-0.6-1.2c-0.3-0.7-0.4-1.4-0.5-2s-0.2-1.1-0.2-1.6
		c0-0.2,0-0.4,0.1-0.5s0.1-0.2,0.2-0.3c0.1-0.1,0.2-0.1,0.2-0.2c0.1-0.1,0.1-0.1,0.1-0.3c0-0.1,0-0.2-0.1-0.2s-0.2-0.1-0.3-0.1
		L232.6,64.1L232.6,64.1z M247.5,71.7c0,0.2,0,0.3,0,0.5c0,0.1,0.1,0.2,0.2,0.3c0.1,0.1,0.2,0.1,0.4,0.1h2.3c0.1,0,0.2,0,0.3,0
		s0.2-0.1,0.2-0.1c0.1-0.1,0.1-0.1,0.1-0.2s0-0.2-0.1-0.3c-0.1-0.1-0.2-0.1-0.4-0.1s-0.4,0-0.7,0s-0.5,0-0.6-0.1s-0.3-0.1-0.3-0.3
		c-0.1-0.1-0.1-0.3-0.1-0.4c0-0.2,0-0.4,0-0.6V65h1.4c0.1,0,0.3,0,0.4,0c0.1,0,0.2-0.1,0.3-0.1c0.1-0.1,0.1-0.2,0.1-0.3
		c0-0.1,0-0.2-0.1-0.3c-0.1-0.1-0.2-0.1-0.3-0.1s-0.3,0-0.4,0h-1.4v-2.6c0-0.1,0-0.2,0-0.3s0-0.2-0.1-0.3s-0.1-0.1-0.3-0.1
		c-0.1,0-0.2,0-0.3,0.1s-0.1,0.2-0.1,0.3s-0.1,0.2-0.1,0.3s0,0.2,0,0.3s0,0.3-0.1,0.4c0,0.2-0.1,0.3-0.1,0.5s-0.1,0.3-0.1,0.5
		s-0.1,0.3-0.1,0.4c-0.1,0.1-0.1,0.2-0.2,0.3c-0.1,0.1-0.2,0.1-0.3,0.1s-0.2,0-0.3,0s-0.2,0-0.3,0s-0.2,0.1-0.2,0.1
		c-0.1,0-0.1,0.1-0.1,0.2c0,0.2,0.1,0.3,0.2,0.4c0.1,0.1,0.3,0.1,0.5,0.1s0.5,0,0.8,0L247.5,71.7L247.5,71.7z M256.2,64
		c-0.6,0-1.2,0.1-1.7,0.4c-0.5,0.2-1,0.5-1.4,1c-0.4,0.4-0.7,0.9-1,1.4c-0.2,0.5-0.4,1.1-0.4,1.7s0.1,1.2,0.3,1.7s0.5,1,0.9,1.4
		s0.9,0.7,1.4,0.9c0.5,0.2,1.1,0.3,1.7,0.3s1.2-0.1,1.8-0.3c0.5-0.2,1-0.5,1.4-0.9s0.7-0.9,0.9-1.4c0.2-0.5,0.3-1.1,0.3-1.8
		c0-0.6-0.1-1.2-0.4-1.7c-0.2-0.5-0.5-1-0.9-1.4s-0.9-0.7-1.4-0.9C257.3,64.1,256.8,64,256.2,64L256.2,64z M256.1,64.9
		c0.5,0,0.9,0.1,1.3,0.3c0.4,0.2,0.7,0.4,0.9,0.8c0.3,0.3,0.4,0.7,0.6,1.1c0.1,0.4,0.2,0.9,0.2,1.3c0,0.6-0.1,1.1-0.3,1.6
		c-0.2,0.4-0.4,0.8-0.7,1.1c-0.3,0.3-0.6,0.5-1,0.7S256.4,72,256,72c-0.5,0-0.9-0.1-1.3-0.3c-0.4-0.2-0.7-0.4-0.9-0.8
		c-0.2-0.3-0.4-0.7-0.5-1.1s-0.2-0.8-0.2-1.3s0.1-0.9,0.2-1.3c0.1-0.4,0.3-0.8,0.5-1.2c0.2-0.3,0.6-0.6,0.9-0.8
		C255.2,65,255.6,64.9,256.1,64.9L256.1,64.9z M268.6,71.6c-0.1-0.1-0.3-0.2-0.4-0.3c-0.1-0.1-0.2-0.2-0.3-0.4
		c-0.1-0.1-0.2-0.2-0.3-0.3c-0.1-0.1-0.2-0.1-0.4-0.1c-0.1,0-0.2,0-0.2,0.1c-0.1,0.1-0.1,0.1-0.2,0.2c0,0.1-0.1,0.2-0.1,0.2
		c0,0.2,0.1,0.4,0.2,0.6s0.3,0.4,0.5,0.5c0.2,0.2,0.4,0.3,0.7,0.4c0.3,0.1,0.5,0.2,0.8,0.3c0.3,0.1,0.5,0.1,0.8,0.1
		c0.4,0,0.8-0.1,1.2-0.2c0.4-0.1,0.7-0.3,1-0.6c0.3-0.2,0.6-0.5,0.7-0.9c0.2-0.4,0.3-0.8,0.3-1.2c0-0.4-0.1-0.8-0.3-1.1
		c-0.2-0.3-0.4-0.5-0.7-0.7c-0.3-0.2-0.6-0.3-0.9-0.4s-0.7-0.2-1-0.3c-0.3-0.1-0.7-0.2-0.9-0.3c-0.3-0.1-0.5-0.2-0.7-0.4
		s-0.3-0.4-0.3-0.7c0-0.2,0.1-0.4,0.1-0.6c0.1-0.2,0.2-0.3,0.4-0.4c0.2-0.1,0.3-0.2,0.5-0.2c0.2-0.1,0.4-0.1,0.6-0.1
		c0.3,0,0.6,0.1,0.8,0.1c0.2,0.1,0.4,0.2,0.6,0.3c0.2,0.1,0.3,0.3,0.4,0.4s0.2,0.2,0.3,0.3c0.1,0.1,0.2,0.1,0.3,0.1
		c0.1,0,0.1,0,0.2-0.1c0-0.1,0.1-0.1,0.1-0.2s0-0.2,0-0.3c0-0.1,0-0.2,0-0.2c0-0.1,0-0.2,0-0.3c0-0.1,0-0.2-0.1-0.3
		c0-0.1-0.1-0.1-0.2-0.2c-0.3-0.2-0.7-0.3-1.1-0.4s-0.7-0.1-1.1-0.1s-0.9,0.1-1.2,0.2c-0.4,0.1-0.7,0.3-0.9,0.6
		c-0.3,0.2-0.5,0.5-0.6,0.8s-0.2,0.6-0.2,1c0,0.5,0.1,0.8,0.3,1.1c0.2,0.3,0.4,0.5,0.7,0.7c0.3,0.2,0.6,0.3,0.9,0.4s0.7,0.2,1,0.3
		c0.3,0.1,0.6,0.2,0.9,0.3c0.3,0.1,0.5,0.3,0.7,0.4c0.2,0.2,0.3,0.4,0.3,0.8c0,0.2-0.1,0.5-0.2,0.6c-0.1,0.2-0.3,0.3-0.4,0.5
		c-0.2,0.1-0.4,0.2-0.6,0.3c-0.2,0.1-0.4,0.1-0.6,0.1c-0.1,0-0.3,0-0.5-0.1c-0.2,0-0.3-0.1-0.5-0.1
		C268.9,71.7,268.7,71.6,268.6,71.6L268.6,71.6z M280.2,69.4c0,0.2,0,0.5,0,0.6c0,0.2,0,0.3-0.1,0.5c-0.1,0.1-0.1,0.3-0.3,0.4
		c-0.2,0.2-0.4,0.4-0.6,0.5s-0.5,0.2-0.8,0.3c-0.3,0.1-0.5,0.1-0.8,0.1c-0.2,0-0.4,0-0.6-0.1s-0.4-0.2-0.6-0.4
		c-0.2-0.2-0.3-0.4-0.4-0.8c-0.1-0.3-0.1-0.7-0.1-1.3v-2.9c0-0.5,0-0.9,0-1.2c0-0.3,0-0.6-0.1-0.7s-0.1-0.3-0.1-0.4
		c-0.1-0.1-0.2-0.1-0.3-0.1c-0.1,0-0.2,0-0.4,0c-0.1,0-0.3,0.1-0.4,0.1s-0.3,0.1-0.4,0.1s-0.1,0.1-0.2,0.1s-0.1,0.1-0.2,0.1
		c-0.1,0.1-0.1,0.1-0.1,0.2s0,0.1,0.1,0.1c0,0,0.1,0.1,0.2,0.1s0.1,0.1,0.2,0.1c0.1,0.1,0.2,0.2,0.3,0.3c0,0.1,0.1,0.3,0.1,0.5
		s0,0.4,0,0.6v3c0,0.6,0.1,1.1,0.2,1.5s0.3,0.7,0.5,1c0.2,0.2,0.4,0.4,0.7,0.6c0.2,0.1,0.5,0.2,0.7,0.2s0.4,0.1,0.6,0.1
		c0.4,0,0.8-0.1,1.1-0.2c0.4-0.1,0.7-0.3,1-0.5s0.6-0.5,0.9-0.7c0,0.3,0,0.5,0,0.7s0.1,0.3,0.1,0.4c0.1,0.1,0.2,0.1,0.3,0.1h1.2
		c0.1,0,0.2,0,0.3,0c0.1,0,0.1-0.1,0.2-0.1c0-0.1,0.1-0.1,0.1-0.3c0-0.1,0-0.1-0.1-0.2c0-0.1-0.1-0.1-0.2-0.1s-0.2-0.1-0.3-0.1
		c-0.1,0-0.1,0-0.2-0.1c0,0-0.1-0.1-0.1-0.2s0-0.2-0.1-0.4c0-0.2,0-0.4,0-0.7v-4c0-0.6,0-1.1,0-1.5s-0.1-0.6-0.1-0.7
		c-0.1-0.1-0.2-0.2-0.3-0.2c-0.1,0-0.2,0-0.4,0c-0.1,0-0.3,0.1-0.4,0.1S280,64,279.9,64s-0.2,0.1-0.3,0.2c-0.1,0.1-0.1,0.1-0.1,0.3
		c0,0.1,0,0.2,0.1,0.2c0.1,0.1,0.2,0.1,0.3,0.2c0.1,0.1,0.2,0.2,0.3,0.3c0,0.1,0.1,0.3,0.1,0.5s0,0.4,0,0.6L280.2,69.4
		C280.3,69.4,280.2,69.4,280.2,69.4z M289.5,70.8c-0.2,0.2-0.4,0.4-0.6,0.5s-0.5,0.3-0.8,0.3c-0.3,0.1-0.5,0.1-0.8,0.1
		c-0.4,0-0.8-0.1-1.1-0.3c-0.3-0.2-0.6-0.4-0.9-0.7c-0.2-0.3-0.4-0.6-0.5-1s-0.2-0.8-0.2-1.2c0-0.3,0-0.7,0.1-1s0.2-0.7,0.3-1
		c0.1-0.3,0.3-0.6,0.5-0.8c0.2-0.2,0.4-0.4,0.7-0.6c0.3-0.1,0.6-0.2,0.9-0.2s0.6,0.1,0.8,0.2c0.2,0.1,0.4,0.2,0.5,0.4
		c0.1,0.1,0.2,0.3,0.3,0.4c0.1,0.1,0.2,0.3,0.3,0.4c0.1,0.1,0.3,0.2,0.5,0.2c0.1,0,0.2,0,0.3-0.1c0.1-0.1,0.2-0.2,0.2-0.3
		c0.1-0.1,0.1-0.2,0.1-0.3c0-0.2-0.1-0.4-0.2-0.6s-0.3-0.4-0.6-0.5c-0.2-0.2-0.5-0.3-0.8-0.4s-0.7-0.1-1-0.1c-0.6,0-1.2,0.1-1.7,0.4
		c-0.5,0.2-1,0.6-1.4,1s-0.7,0.9-0.9,1.5c-0.2,0.6-0.3,1.1-0.3,1.8c0,0.6,0.1,1.1,0.3,1.7c0.2,0.5,0.4,1,0.8,1.3
		c0.3,0.4,0.7,0.7,1.2,0.9c0.5,0.2,1,0.3,1.6,0.3c0.5,0,1-0.1,1.4-0.3c0.4-0.2,0.8-0.4,1.2-0.8c0.1-0.1,0.2-0.2,0.3-0.3
		c0.1-0.1,0.2-0.2,0.3-0.4c0.1-0.1,0.1-0.3,0.1-0.4s0-0.2-0.1-0.2c-0.1-0.1-0.1-0.1-0.2-0.1s-0.2,0-0.2,0.1c-0.1,0-0.1,0.1-0.2,0.2
		C289.6,70.7,289.5,70.8,289.5,70.8L289.5,70.8z M297.6,70.8c-0.2,0.2-0.4,0.4-0.6,0.5s-0.5,0.3-0.8,0.3c-0.3,0.1-0.5,0.1-0.8,0.1
		c-0.4,0-0.8-0.1-1.1-0.3c-0.3-0.2-0.6-0.4-0.9-0.7c-0.2-0.3-0.4-0.6-0.5-1s-0.2-0.8-0.2-1.2c0-0.3,0-0.7,0.1-1s0.2-0.7,0.3-1
		c0.1-0.3,0.3-0.6,0.5-0.8c0.2-0.2,0.4-0.4,0.7-0.6c0.3-0.1,0.6-0.2,0.9-0.2s0.6,0.1,0.8,0.2c0.2,0.1,0.4,0.2,0.5,0.4
		c0.1,0.1,0.2,0.3,0.3,0.4c0.1,0.1,0.2,0.3,0.3,0.4c0.1,0.1,0.3,0.2,0.5,0.2c0.1,0,0.2,0,0.3-0.1c0.1-0.1,0.2-0.2,0.2-0.3
		c0.1-0.1,0.1-0.2,0.1-0.3c0-0.2-0.1-0.4-0.2-0.6s-0.3-0.4-0.6-0.5c-0.2-0.2-0.5-0.3-0.8-0.4s-0.7-0.1-1-0.1c-0.6,0-1.2,0.1-1.7,0.4
		c-0.5,0.2-1,0.6-1.4,1s-0.7,0.9-0.9,1.5c-0.2,0.6-0.3,1.1-0.3,1.8c0,0.6,0.1,1.1,0.3,1.7c0.2,0.5,0.4,1,0.8,1.3
		c0.3,0.4,0.7,0.7,1.2,0.9c0.5,0.2,1,0.3,1.6,0.3c0.5,0,1-0.1,1.4-0.3c0.4-0.2,0.8-0.4,1.2-0.8c0.1-0.1,0.2-0.2,0.3-0.3
		c0.1-0.1,0.2-0.2,0.3-0.4c0.1-0.1,0.1-0.3,0.1-0.4s0-0.2-0.1-0.2c-0.1-0.1-0.1-0.1-0.2-0.1s-0.2,0-0.2,0.1c-0.1,0-0.1,0.1-0.2,0.2
		C297.7,70.7,297.6,70.8,297.6,70.8L297.6,70.8z M300.9,69.5c0.5-0.1,1-0.1,1.5-0.2s0.9-0.1,1.3-0.2s0.8-0.2,1.2-0.4
		c0.3-0.1,0.5-0.2,0.8-0.4c0.3-0.1,0.5-0.3,0.7-0.5s0.4-0.4,0.5-0.7c0.1-0.3,0.2-0.5,0.2-0.9c0-0.3-0.1-0.6-0.2-0.8
		c-0.1-0.3-0.3-0.5-0.6-0.7c-0.3-0.2-0.6-0.4-0.9-0.5c-0.4-0.1-0.8-0.2-1.2-0.2c-0.7,0-1.3,0.1-1.8,0.4c-0.6,0.2-1.1,0.6-1.5,1
		s-0.8,0.9-1,1.5s-0.4,1.2-0.4,1.8c0,0.6,0.1,1.1,0.3,1.6c0.2,0.5,0.5,0.9,0.9,1.3s0.8,0.6,1.3,0.8c0.5,0.2,1,0.3,1.6,0.3
		c0.5,0,0.9-0.1,1.3-0.2s0.8-0.3,1.2-0.6c0.1-0.1,0.2-0.1,0.3-0.2c0.1-0.1,0.2-0.2,0.4-0.3c0.1-0.1,0.2-0.3,0.3-0.4
		c0.1-0.1,0.1-0.3,0.1-0.4s0-0.2-0.1-0.2c-0.1-0.1-0.1-0.1-0.2-0.1s-0.2,0.1-0.3,0.2c-0.1,0.1-0.2,0.2-0.4,0.4
		c-0.2,0.1-0.3,0.3-0.6,0.4c-0.2,0.1-0.5,0.3-0.8,0.4s-0.6,0.2-1,0.2s-0.7-0.1-1-0.2s-0.6-0.3-0.9-0.5s-0.5-0.5-0.7-0.7
		C301.1,70.2,300.9,69.8,300.9,69.5L300.9,69.5z M300.8,68.7c0-0.5,0.1-1,0.2-1.4c0.1-0.5,0.3-0.9,0.6-1.2c0.3-0.4,0.6-0.6,1-0.8
		c0.4-0.2,0.9-0.3,1.4-0.3c0.3,0,0.5,0,0.8,0.1c0.2,0.1,0.4,0.2,0.6,0.4c0.1,0.2,0.2,0.5,0.2,0.8s-0.1,0.6-0.2,0.9
		c-0.2,0.2-0.4,0.5-0.7,0.6c-0.3,0.2-0.6,0.3-0.9,0.4s-0.7,0.2-1,0.3c-0.4,0.1-0.7,0.1-1,0.2C301.3,68.7,301,68.7,300.8,68.7
		L300.8,68.7z M309.9,71.6c-0.1-0.1-0.3-0.2-0.4-0.3c-0.1-0.1-0.2-0.2-0.3-0.4c-0.1-0.1-0.2-0.2-0.3-0.3c-0.1-0.1-0.2-0.1-0.4-0.1
		c-0.1,0-0.2,0-0.2,0.1c-0.1,0.1-0.1,0.1-0.2,0.2c0,0.1-0.1,0.2-0.1,0.2c0,0.2,0.1,0.4,0.2,0.6s0.3,0.4,0.5,0.5
		c0.2,0.2,0.4,0.3,0.7,0.4c0.3,0.1,0.5,0.2,0.8,0.3c0.3,0.1,0.5,0.1,0.8,0.1c0.4,0,0.8-0.1,1.2-0.2c0.4-0.1,0.7-0.3,1-0.6
		c0.3-0.2,0.6-0.5,0.7-0.9c0.2-0.4,0.3-0.8,0.3-1.2c0-0.4-0.1-0.8-0.3-1.1c-0.2-0.3-0.4-0.5-0.7-0.7c-0.3-0.2-0.6-0.3-0.9-0.4
		s-0.7-0.2-1-0.3c-0.3-0.1-0.7-0.2-0.9-0.3c-0.3-0.1-0.5-0.2-0.7-0.4c-0.2-0.2-0.3-0.4-0.3-0.7c0-0.2,0.1-0.4,0.1-0.6
		c0.1-0.2,0.2-0.3,0.4-0.4c0.2-0.1,0.3-0.2,0.5-0.2c0.2-0.1,0.4-0.1,0.6-0.1c0.3,0,0.6,0.1,0.8,0.1c0.2,0.1,0.4,0.2,0.6,0.3
		c0.2,0.1,0.3,0.3,0.4,0.4s0.2,0.2,0.3,0.3c0.1,0.1,0.2,0.1,0.3,0.1c0.1,0,0.1,0,0.2-0.1c0-0.1,0.1-0.1,0.1-0.2s0-0.2,0-0.3
		s0-0.2,0-0.2c0-0.1,0-0.2,0-0.3c0-0.1,0-0.2-0.1-0.3c-0.1-0.1-0.1-0.1-0.2-0.2c-0.3-0.2-0.7-0.3-1.1-0.4s-0.7-0.1-1.1-0.1
		s-0.9,0.1-1.2,0.2c-0.4,0.1-0.7,0.3-0.9,0.6c-0.3,0.2-0.5,0.5-0.6,0.8s-0.2,0.6-0.2,1c0,0.5,0.1,0.8,0.3,1.1
		c0.2,0.3,0.4,0.5,0.7,0.7c0.3,0.2,0.6,0.3,0.9,0.4s0.7,0.2,1,0.3c0.3,0.1,0.6,0.2,0.9,0.3c0.3,0.1,0.5,0.3,0.7,0.4
		c0.2,0.2,0.3,0.4,0.3,0.8c0,0.2-0.1,0.5-0.2,0.6c-0.1,0.2-0.3,0.3-0.4,0.5c-0.2,0.1-0.4,0.2-0.6,0.3c-0.2,0.1-0.4,0.1-0.6,0.1
		c-0.1,0-0.3,0-0.5-0.1c-0.2,0-0.3-0.1-0.5-0.1C310.2,71.7,310,71.6,309.9,71.6L309.9,71.6z M316.9,71.6c-0.1-0.1-0.3-0.2-0.4-0.3
		c-0.1-0.1-0.2-0.2-0.3-0.4c-0.1-0.1-0.2-0.2-0.3-0.3c-0.1-0.1-0.2-0.1-0.4-0.1c-0.1,0-0.2,0-0.2,0.1c-0.1,0.1-0.1,0.1-0.2,0.2
		c0,0.1-0.1,0.2-0.1,0.2c0,0.2,0.1,0.4,0.2,0.6s0.3,0.4,0.5,0.5c0.2,0.2,0.4,0.3,0.7,0.4c0.3,0.1,0.5,0.2,0.8,0.3
		c0.3,0.1,0.5,0.1,0.8,0.1c0.4,0,0.8-0.1,1.2-0.2c0.4-0.1,0.7-0.3,1-0.6c0.3-0.2,0.6-0.5,0.7-0.9c0.2-0.4,0.3-0.8,0.3-1.2
		c0-0.4-0.1-0.8-0.3-1.1c-0.2-0.3-0.4-0.5-0.7-0.7c-0.3-0.2-0.6-0.3-0.9-0.4s-0.7-0.2-1-0.3c-0.3-0.1-0.7-0.2-0.9-0.3
		c-0.3-0.1-0.5-0.2-0.7-0.4c-0.2-0.2-0.3-0.4-0.3-0.7c0-0.2,0.1-0.4,0.1-0.6c0.1-0.2,0.2-0.3,0.4-0.4c0.2-0.1,0.3-0.2,0.5-0.2
		c0.2-0.1,0.4-0.1,0.6-0.1c0.3,0,0.6,0.1,0.8,0.1c0.2,0.1,0.4,0.2,0.6,0.3c0.2,0.1,0.3,0.3,0.4,0.4s0.2,0.2,0.3,0.3
		c0.1,0.1,0.2,0.1,0.3,0.1c0.1,0,0.1,0,0.2-0.1c0-0.1,0.1-0.1,0.1-0.2s0-0.2,0-0.3c0-0.1,0-0.2,0-0.2c0-0.1,0-0.2,0-0.3
		c0-0.1,0-0.2-0.1-0.3c-0.1-0.1-0.1-0.1-0.2-0.2c-0.3-0.2-0.7-0.3-1.1-0.4s-0.7-0.1-1.1-0.1s-0.9,0.1-1.2,0.2
		c-0.4,0.1-0.7,0.3-0.9,0.6c-0.3,0.2-0.5,0.5-0.6,0.8s-0.2,0.6-0.2,1c0,0.5,0.1,0.8,0.3,1.1c0.2,0.3,0.4,0.5,0.7,0.7
		c0.3,0.2,0.6,0.3,0.9,0.4s0.7,0.2,1,0.3c0.3,0.1,0.6,0.2,0.9,0.3c0.3,0.1,0.5,0.3,0.7,0.4c0.2,0.2,0.3,0.4,0.3,0.8
		c0,0.2-0.1,0.5-0.2,0.6c-0.1,0.2-0.3,0.3-0.4,0.5c-0.2,0.1-0.4,0.2-0.6,0.3c-0.2,0.1-0.4,0.1-0.6,0.1c-0.1,0-0.3,0-0.5-0.1
		c-0.2,0-0.3-0.1-0.5-0.1C317.2,71.7,317.1,71.6,316.9,71.6L316.9,71.6z"/>
</g>
</svg>
